<?xml version="1.0" encoding="UTF-8"?>
<svg fill="#E2DCD0" id="Layer_1" xmlns="http://www.w3.org/2000/svg" viewBox="0 0 854.72 60.5">
  <path d="M354.83,60.05c-.35-.21-.7-.51-1.02-.74-1.45-1.06-3.75-.57-5.44-.62-1.35-.05-1.77-.88-1.2-2.06.2-.41.19-1.09-.02-1.49-.75-1.45-.39-2.28,1.09-2.83,2.34-.87,5.17-1.74,5.36-4.57.07-1.09.04-2.19-.09-3.28-.04-.34-.09-.7.01-1.03.15-.48.6-.8.81-1.25.4-.86-.16-1.82-.49-2.71-.45-1.19.2-14.13-3.27-11.76-.47.32-.74.87-.99,1.39-.82,1.74-1.64,3.48-2.46,5.23-.63,1.35-1.27,2.69-1.9,4.04-1.53,3.24-3.05,6.48-4.58,9.71-.21.45-.42.91-.41,1.41.02.57.34,1.08.57,1.61.81,1.9.22,4.31-1.38,5.62-.4.33-.88.6-1.39.63-1.81.09-3.03-2.94-3.85-4.22-1.31-2.04-2.5-4.17-3-6.58-.17-.8-.31-1.67-.92-2.22-.52-.47-1.32-.6-1.73-1.17-.64-.89.06-2.1.02-3.2-.05-1.55-1.57-2.71-1.78-4.24-.13-.89.19-1.85-.19-2.65-.28-.58-.86-.94-1.31-1.41-1.1-1.16-1-5.47-3.24-4.87-1.29.34-2.47,3.3-2.81,4.45-.31,1.06-.19,2.32.59,3.11.3.3.7.57.75.98.06.43-.28.79-.44,1.19-.42,1.03.32,2.13.5,3.22.2,1.22-.3,2.43-.56,3.64s-.18,2.68.82,3.4c1.14.81,2.74.2,4.09.57.24.07.49.18.6.41.27.56-.49,1.03-1.09,1.18-2.03.49-1.03,2.29-.11,3.38,1.43,1.71,1.11,3.8-.78,5.04-1.34.88-2.94,1.34-4.49.72-.92-.37-1.79-1.07-2.77-.93-.67.09-1.22.57-1.86.79-1.19.4-2.33-.15-3.52-.06-1.44.12-1.55.78-2.68,1.44-1.24.72-2.36-1.69-2.62-2.5-.46-1.46-.61-2.58.04-3.94.23-.49.02-1.18.05-1.78.08-1.61.56-1.94,2.15-2,1.87-.07,3.54-.72,4.67-2.33.18-.25.31-.58.34-.88.24-2.48.5-4.95.67-7.43.25-3.51.29-7.04.61-10.55s.14-6.46.15-9.81c0-1.29.58-2.58.26-3.8s-1.55-2.34-2.38-3.24c-.6-.64-1.59-1.19-2.45-1.26-1.42-.12-2.46-.81-3.48-1.6-1.31-1.03-.2-3.61,1.12-4.08,1.59-.56,3.28-.85,4.87-1.41,3.51-1.24,7.1-.61,10.65-.55,2.09.04,3.27,1.66,4.02,3.45.59,1.42,1.32,2.64,2.4,3.77.8.84,1.45,2.1,1.58,3.23.44,3.85,1.39,7.48,3.41,10.82.52.86.94,1.86,1.12,2.85.36,1.94.76,3.8,2.4,5.13.21.17.18.62.36.85.46.56.91,1.38,1.49,1.5.5.11,1.39-.46,1.73-.97,1.08-1.64,1.67-3.44,2.89-4.97.92-1.15,2.09-2.42,2.39-3.92.33-1.67-.22-3.31.37-5.04.43-1.25,1.19-2.35,1.65-3.59.5-1.32.4-2.71,1.08-3.96.45-.84,1.22-1.47,1.4-2.45.24-1.27-.59-2.53-.31-3.83.27-1.24,1.13-2.51,2.16-3.24.22-.16.45-.38.55-.62.3-.75.97-.82,1.49-.6,2.11.9,4.35.61,6.53.84,1.57.16,3.12,2.36,3.17,3.51.06,1.44-.54,2.75-.34,4.17.24,1.64,1.11,2.86.71,4.55-.35,1.51-1.52,2.78-1.41,4.41.06.87.5,1.66.83,2.47.56,1.38.23,2.21-.19,3.52-.37,1.15.33,1.73.58,2.76.33,1.32-.13,2.08-.53,3.33-.98,3.09.99,6.54-.01,9.62-.96,2.97-.97,4.74,2.73,4.85,1.37.04,3.09.36,3.43,1.69.42,1.66-2.9,3.15-1.45,4.41.63.55,1.31,1.06,2.04,1.47,1.8,1.01,2.19,1.85,1.59,3.8-.19.63-.21,1.51-.64,1.81-1.87,1.33-4.21.78-6.35.83-2.84.07-5.66.51-8.47.93-.3.05-.62.1-.87.27-.16.11-.28.26-.45.36-.38.23-.79.11-1.18-.12Z"/>
  <path d="M634.44,0c1.2,1.36,2.36,2.76,3.62,4.07.38.4,1.01.71,1.55.78,1.06.13,2.15,0,3.22.09,1.38.13,2.74.42,4.12.54.76.07,1.53-.06,2.3-.14.46-.05,1.1-.43,1.35-.25,1.52,1.15,3.2.52,4.82.63.99.07,1.98.36,2.95.29,1.01-.07,1.99-.44,2.98-.7.38-.1.75-.37,1.13-.37,1.93-.03,3.87.07,5.8-.03,1.41-.07,2.83-.28,4.18-.64.5-.13.94-.83,1.23-1.36.62-1.12,1.06-1.35,2.32-1,.34.1.72.26,1.04.21,1.69-.29,2.66.84,3.69,1.83.22.21.28.62.36.96.17.69.25,1.39.45,2.07.39,1.33,1.14,2.34,2.31,3.2.95.7,1.55,1.89,2.1,2.6-.42,1.11-.92,1.99-1.08,2.93-.28,1.76-1.51,2.42-2.95,2.93-.14.05-.37.08-.46,0-1.35-1.06-3.15-1.65-3.8-3.46-.7-1.95-2.06-2.88-4.18-2.82-.39.01-.86.06-1.17-.11-.73-.42-1.24-.13-1.88.21-.47.26-1.09.29-1.65.34-.47.04-.97-.12-1.43-.03-.96.19-1.79.43-2.76-.31-.8-.61-2.73,1.26-2.74,2.47,0,.56-.23,1.11-.36,1.67-.03.11-.18.24-.15.32.56,1.44-.26,2.8-.25,4.15.01,1.81.66,3.62,1.05,5.43.05.23.26.49.2.68-.46,1.47-.17,2.91-.04,4.4.16,1.76-.2,3.56-.27,5.34-.03.83.01,1.55-1.02,1.9-.27.09-.49,1.06-.34,1.48.73,2.08,2.15,3.92,1.78,6.35-.16,1.06,1.53,2.41,2.75,2.58.54.08,1.07.38,1.55.67,1.05.63,2.04,1.35,3.1,1.97.77.45,1.03.98.5,1.75-.54.78-1.04,1.6-1.69,2.27-1.06,1.1-2.22,2.12-3.37,3.14-.24.21-.67.44-.91.37-2.08-.64-4.27-.86-5.96-2.65-.81-.86-2.4-1.12-3.68-1.38-1.03-.21-2.15-.08-3.23,0-.48.04-1,.24-1.39.53-.98.71-1.94,1.23-3.2.64-.31-.15-.79-.08-1.15.03-.93.29-1.32-.04-1.87-.87-1.07-1.6-.52-3.23-.17-4.69.17-.7,1.68-1.21,2.66-1.55,1.82-.63,3.59-1.16,4.78-2.89.72-1.05.79-2.07.47-3.17-.29-1-.19-1.88.42-2.72.38-.53.69-1.07.27-1.76-.1-.17.11-.51.14-.77.08-.62.13-1.24.2-1.86.07-.65.17-1.3.2-1.95.02-.48.11-1.06-.11-1.42-.44-.7-.76-1.3-.25-2.08.1-.15.1-.38.1-.58.04-1.08.07-2.17.08-3.25.01-.89.07-1.78-.04-2.66-.13-1-.09-1.88.32-2.87.37-.9.16-2.05.17-3.1.01-.87-.2-1.78.01-2.6.5-2-.6-3.72-2.7-3.83-1.6-.08-3.22-.16-4.79.03-1.23.15-2.5.62-3.21,1.83-.99,1.71-2.49,2.72-4.3,3.36-1.79.63-3.15-.09-3.71-1.89-.22-.7-.62-1.34-.94-2-.1-.21-.29-.42-.29-.63-.04-2.11-1.18-3.62-2.56-5.06-1.62-1.68-1.99-3.84-.94-5.79.39-.73,1.2-1.23,1.82-1.84.96,0,1.92,0,2.88,0Z"/>
  <path d="M796.61,50.79c.99-.16,2.16-.34,3.32-.56.18-.03.34-.2.49-.34,1.5-1.33,2.15-5.32,1.26-7.13-.25-.51-.19-1.19-.21-1.79-.04-1.37-.03-2.74-.05-4.11,0-.56-.05-1.12-.04-1.68,0-.36.17-.75.07-1.06-.52-1.58-.11-2.91.88-4.18.18-.23.08-.77-.02-1.14-.24-.91-.65-1.78-.8-2.7-.18-1.1-.24-2.21-.19-3.37.1-2.35.84-4.42,1.71-6.51.15-.37.01-.98-.21-1.36-.75-1.29-1.81-2.35-1.86-4.04-.05-1.47-2.85-3.67-4.32-3.78-.58-.04-1.17-.22-1.7-.46-1.16-.52-1.59-1.36-1.34-2.37.36-1.43,1.47-2.48,2.67-2.24,1.3.25,2.4-.07,3.58-.53.68-.27,1.71-.39,2.27-.05,1.57.93,3.17.56,4.77.5.63-.03,1.26-.17,1.89-.18,1.08-.01,2.07.18,3.19-.42,1.04-.56,2.5-.27,3.72-.58,1.53-.38,2.99-.23,4.53-.16,1.69.08,3.31.19,4.95.61.6.15,1.27.02,1.91-.02,1.42-.09,2.7.35,4.05.77,2.51.77,4.77,2.33,7.59,2.29.86-.01,1.84.99,2.59,1.72,1.02.98,1.95,2,3.4,2.31.22.05.51.19.6.37.59,1.19,1.65,1.89,2.58,2.76,1.25,1.18,1.97,2.93,2.85,4.48.68,1.2,1.27,2.46,1.88,3.71.15.31.32.67.32,1,0,2,.18,3.96,1.12,5.79.22.43.12,1.01.2,1.52.09.62.23,1.24.33,1.86.05.31.13.64.09.94-.3,2.05-.58,4.11-.96,6.15-.15.81-.57,1.56-.82,2.36-.31,1.02-.59,2.05-.85,3.08-.24.95-.45,1.92-.68,2.88-.02.08-.04.18-.1.21-1.24.75-1.72,2.18-2.77,3.1-.27.24-.64.42-.79.72-1.11,2.21-3.3,3.27-5.03,4.82-.92.82-1.71,1.78-2.52,2.71-.13.15-.22.48-.15.65.47,1.21-.19,1.1-.98.87-.27-.08-.61-.24-.81-.15-1.94.93-3.99,0-6.02.39-1.71.32-3.49.48-5.24.79-1.02.18-2.12-.18-3.19-.2-1.3-.03-2.59.05-3.89.07-1.95.03-3.9.01-5.84.11-.72.04-1.42.38-2.15.49-.41.07-.87.02-1.28-.09-.78-.21-1.53-.7-2.29-.7-1.57-.01-3.11.05-4.49-.88-.22-.14-.55-.22-.8-.18-1.46.25-2.94.45-4.37.84-1.67.47-4.71-.5-5.61-1.94-.41-.65-1.28-1.47-1.12-1.92.39-1.12,1.23-2.09,1.95-3.08.61-.84,1.44-1.25,2.7-.98ZM818.12,6.55c-.54.06-.95.07-1.34.15-1.43.29-2.46,1.56-2.7,3-.13.8-.51,1.57-.84,2.32-.49,1.1-1.54,2.21-1.46,3.25.14,1.89-1.15,3.72-.16,5.6.07.13-.04.41-.15.56-.77,1.14-.66,2.43-.64,3.7.01.71-.3,1.52-.05,2.12.54,1.34-.29,2.71-.03,3.75.46,1.8-.14,3.47.1,5.18.05.37-.15.78-.19,1.17-.05.49-.03,1-.09,1.49-.14,1.15-.06,2.22.75,3.17.16.19-.07.68-.07,1.03,0,.42-.11,1.01.11,1.22,1.04.98.79,1.84.03,2.82-.47.6-.52,1.38.24,1.76,1.41.72,2.86,1.62,4.37,1.82,1.5.2,2.96-.02,4.52.61,1.71.69,3.72.69,5.6.93.34.04.75-.11,1.07-.27.63-.32,1.17-.84,1.83-1.06,2.65-.9,5.29-1.78,7.03-4.2.13-.19.39-.28.56-.44.71-.68,1.46-1.33,2.09-2.07.42-.5.66-1.14.97-1.72.72-1.32,1.69-2.57,2.12-3.98.85-2.81,1.36-5.71,2.07-8.56.28-1.12.4-2.14-.44-3.11-.23-.26-.29-.76-.27-1.14.14-1.84-.56-3.43-1.39-5-.58-1.1-.84-2.3-1.94-3.17-1.21-.97-2.07-2.37-3.18-3.49-.93-.95-1.99-1.79-3.01-2.65-.2-.17-.49-.25-.75-.32-1.45-.4-2.91-.77-4.36-1.17-1.15-.32-2.28-.85-3.44-.96-.96-.08-1.62-.42-2.07-1.15-.57-.93-1.18-1.31-2.24-.75-.25.13-.69-.06-1.04-.12-.59-.11-1.17-.23-1.61-.32Z"/>
  <path d="M718.13,1.4c.77.12,1.54.33,2.31.34.81,0,1.62-.17,2.43-.27.42-.05.9-.26,1.25-.13,1.08.39,2.18.79,3.14,1.41,1.93,1.24,3.99.83,6.04.7.63-.04,1.25-.18,1.88-.25,1.64-.19,3.26-1.17,4.95-.05.19.13.71-.28,1.09-.38.53-.15,1.09-.4,1.61-.34,1.06.13,2.06.26,2.93-.57.14-.13.47-.17.67-.11,1.29.36,2.61.69,3.85,1.19.63.25,1.15.78,1.68,1.24.83.73,1.67,1.47,2.41,2.28.39.42.56,1.03.88,1.52,1.68,2.49,2.66,5.24,3.09,8.2.03.22,0,.49-.09.69-.71,1.56-3.56,2.35-4.93,1.36-1.58-1.13-2.52-2.56-2.95-4.56-.24-1.12-1.34-2.57-2.36-2.89-1.46-.46-3.2-.05-4.82.04-.63.03-1.25.2-1.87.32-.71.13-1.11.39-1,1.29.06.53-.29,1.17-.61,1.66-.34.52-.84.95-1.32,1.37-.21.18-.53.23-.8.34-.03-.25-.09-.49-.08-.74,0-.32.06-.63.08-.95.09-1.4.08-1.31-1.37-1.3-.8,0-1.61-.36-2.4-.6-1.6-.5-3.02.55-3.1,2.24-.07,1.46-.47,2.92.27,4.35.13.25-.16.68-.18,1.03-.04,1.04-.34,2.2,0,3.11.53,1.42-.16,2.58-.39,3.81-.17.88-.08,1.45.57,2,.75.63,1.46,1.17,2.58.84.88-.26,1.83-.26,2.75-.37.31-.04.66.02.94-.09,1.22-.46,2.38-.53,3.56.19.33.2.89.23,1.27.11,1.1-.35,2.17-.79,3.22-1.26.59-.27.6-.67.05-1.08-.23-.18-.58-.56-.52-.71.39-1,.65-2.27,1.41-2.86.73-.56,2.02-.5,3.06-.5.48,0,.99.5,1.41.85.99.83,1.08,1.59.2,2.54-.55.59-.49,1.02-.12,1.68.28.49.23,1.16.36,1.75.12.55.14,1.18.43,1.63.55.83.67,1.45-.15,2.19-.73.66-.71,1.52,0,2.22.57.57.44.9-.15,1.33-.71.51-1.43,1.04-2.03,1.68-.41.44-.71,1.04-.87,1.62-.17.62-.11,1.51-.99,1.24-.53-.16-1.33-1.09-1.23-1.45.58-2.01-1.19-3.11-1.66-4.7-.27-.93-1.63-1.04-2.47-.44-.84.6-1.56.13-2.18-.34-.77-.59-1.35-.77-2.18-.05-.8.69-2.44.38-3.12-.42-.21-.24-.4-.5-.62-.73-1.31-1.37-1.86-1.48-3.07-.67-.95.64-1.37,2.25-.71,3.43.46.83.68,1.53.36,2.48-.14.41.15,1.01.36,1.47.53,1.16.62,2.17-.52,3.09-.78.64-1.34,3.99-.7,4.74.48.56,1.4,1.08,2.09,1.04.75-.05,1.16.1,1.64.58.94.96,2.19,1.25,3.28.57,1.39-.88,2.61-.47,3.94-.07.64.19,1.32.22,1.98.36.76.16,1.52.35,2.28.52,1.15.27,2.27.49,3.22-.53.6-.64,1.34-1.18,1.84-1.88,1.5-2.13,3.85-3.19,5.81-4.72.85-.66,2.23-.74,3.39-.83.67-.05,1.21.48.62,1.31-.13.19-.32.44-.29.63.3,2.21-1.24,3.8-1.88,5.69-.3.9-.59,1.81-.92,2.7-.12.32-.31.63-.51.91-.63.86-1.33,1.68-1.92,2.57-.5.74-1.13.86-1.96.83-.93-.04-1.87.1-2.81.16-.36.02-.8.17-1.05.02-1.68-1.03-3.18-.17-4.65.46-.87.38-1.49.34-2.13-.37-.28-.31-.69-.69-1.07-.72-1.39-.11-2.8-.14-4.19-.1-1.83.05-3.65.19-5.47.3-.35.02-.7.16-1.05.16-.7,0-1.44.07-2.08-.14-1.17-.37-2.22-.41-3.33.18-1.36.73-2.79,1.34-4.17,2.04-.77.39-1.26-.05-1.64-.55-.68-.89-1.44-1.01-2.41-.54-.71.34-1.36.24-1.64-.61-.43-1.28-.86-2.55-1.2-3.85-.09-.34.05-.8.22-1.14.47-.96.94-1.92,1.54-2.79.24-.35.84-.56,1.3-.62.54-.07,1.11.11,1.67.13,1.87.07,2.7-1.15,2.14-2.95-.33-1.05-.54-2.14-.68-3.23-.04-.33.25-.86.55-1.06.77-.51.98-1.1.64-1.94-.18-.44-.29-.91-.48-1.35-.36-.82-.66-1.61-.06-2.48.2-.29.17-.76.21-1.15.15-1.49.35-2.98.41-4.48.03-.75-.02-1.62-.38-2.23-.74-1.27-.87-1.92-.09-3.2.12-.2.24-.42.38-.61.7-.91.62-1.68-.36-2.33-.69-.45-.78-.93-.1-1.53.48-.42.88-.92,1.26-1.43.54-.73.54-1.37-.13-2.13-.42-.46-.74-1.29-.65-1.88.26-1.62-.46-3.32-1.97-4.11-.6-.31-1.19-.65-1.76-1.02-2.35-1.54-3.48-4.13-1.88-7.03.13-.24.34-.49.35-.74.06-1.05.68-1.36,1.61-1.32.32.01.64,0,.96,0,0-.07.02-.15.03-.22Z"/>
  <path d="M605.9,58.57c-.62-.1-1.25-.25-1.87-.27-.83-.03-1.66.08-2.49.08-.61,0-1.37.12-1.8-.19-.72-.53-1.1-.32-1.62.19-1.19,1.17-1.2,1.14-2.47.09-.67-.55-1.46-1.03-2.3-.52-1.77,1.08-3.47.39-5.21,0-.92-.2-1.85-.45-2.78-.53-1.21-.11-2.2-.95-2.34-2.14-.27-2.36.29-3.14,2.46-4.12,1.09-.49,2.11-1.28,2.98-2.11.46-.43.58-1.25.77-1.92.18-.64.31-1.31.34-1.96.02-.38-.1-.89-.36-1.13-1.13-1.06-1.48-2.3-1.21-3.8.07-.41-.15-.88-.28-1.32-.65-2.13-2.16-2.46-4.08-1.93-.19.05-.41.04-.6,0-1.76-.42-3.38-.53-5.14.41-.86.47-2.26-.02-3.22.81-.27.23-.65.43-.77.72-.93,2.3-1.81,4.61-2.7,6.93-1.02,2.67.43,4.2,2.41,5.55,1.08.74,2.07,1.75,2.78,2.84.9,1.37.29,2.49-1.35,2.78-1.13.2-2.3.17-3.43.36-.89.14-1.74.49-2.63.67-.45.09-1.02.17-1.4,0-2.21-1.03-4.34-.99-6.57,0-.81.36-1.8.32-2.71.41-1.57.14-2.25-1.36-2.84-3.2-.22-.67-.28-1.4-.47-2.08-.24-.91.4-2.2,1.32-2.86,1.57-1.13,3.26-2.17,4.6-3.54.97-.99,1.45-2.45,2.18-3.69.28-.47.7-.87.94-1.35.25-.51.34-1.09.52-1.63.26-.76.38-1.64.85-2.26,1.42-1.85,2.33-3.86,2.84-6.15.26-1.18,1.08-2.26,1.78-3.3.48-.72.85-1.34.27-2.16-.08-.12-.13-.32-.1-.46.35-1.65.62-3.33,1.11-4.93.39-1.29.95-2.56,1.64-3.71.82-1.36,1.06-2.6.76-4.24-.39-2.19-.27-4.51-.16-6.76.04-.71.66-1.46,1.17-2.08,1.65-2,3.81-1.81,6.04-1.32.92.2,1.87.43,2.79.36,3.44-.25,5.26.84,6,4.01.13.57.49,1.09.7,1.65.17.44.46.95.36,1.36-.45,1.9.44,3.59.69,5.37.19,1.4.39,2.68,1.29,3.87.35.47.06,1.45.01,2.2-.02.35-.31.74-.22,1.03.51,1.57,1.09,3.13,1.68,4.67.24.61.53,1.22.88,1.77.24.38.62.67.95,1,.8.79,1.6,1.59,2.42,2.37.44.42.86.93,1.39,1.17,1.43.64,2.49,3.27,1.68,4.62-.26.43-.84.71-1.33.96-.63.32-.92.65-.6,1.41.16.38.06.93-.07,1.35-.41,1.3-.09,2.55.91,3.41.28.24.54.6.65.95.37,1.19,1.22,1.82,2.38,1.83,1.29,0,2.17.66,3.04,1.45.74.67,1.48,1.34,2.29,1.9.76.53,1.2,1.12,1.09,2.08-.1.86-.03,1.76-.21,2.6-.42,1.95-1.75,2.6-3.65,2.45ZM580.2,16.92c-.12,0-.23-.02-.35-.03.48,1.84-.67,2.81-1.7,3.9-.42.45-.69,1.17-.76,1.8-.2,1.74-.25,3.5-1.09,5.11-.21.4-.44,1.09-.26,1.34.73.98,1.62,1.84,2.45,2.74.04.05.15.04.23.05,1.24.11,2.47.26,3.56-.6.34-.26.76-.46,1.18-.56,1.52-.39,1.96-1.43,1.21-2.9-.58-1.13-1.21-2.25-1.68-3.43-.26-.64-.3-1.38-.32-2.08-.03-.92.09-1.84.05-2.75-.02-.36-.19-.81-.45-1.05-.64-.57-1.37-1.03-2.07-1.54Z"/>
  <path d="M481.44,28.57c0,1.59.03,3.17,0,4.76-.04,1.47-.37,2.96-.21,4.4.3,2.61.85,5.2,1.33,7.79.15.8.95,1.63-.28,2.27-.1.05-.15.41-.07.53.42.65.77,1.4,1.35,1.89.9.75,2.01,1.24,2.91,1.99.65.54,1.26,1.25,1.6,2.01.89,2,.06,3.49-1.99,4.29-1.52.59-2.75.17-4.03-.57-.43-.25-.98-.39-1.48-.39-2.22.03-4.45.08-6.67.22-.72.04-1.46.29-2.14.56-.77.31-1.17-.04-1.59-.61-1.14-1.53-.86-2.68.77-3.69,1.42-.88,2.75-1.91,4.08-2.92.63-.48.86-1.07.38-1.88-.2-.34-.15-.94-.01-1.34.36-1.02.4-1.95.27-3.09-.25-2.08-.78-4.35.76-6.28.46-.58.36-1.12-.04-1.75-.46-.72-.93-1.51-.55-2.46.04-.1.03-.26-.02-.35-1.25-2.23-.45-4.7-.76-7.04-.26-1.96-.16-4.08.32-5.99.58-2.31-.51-4.44-.17-6.68.06-.38-.38-.85-.61-1.26-.34-.62-.75-1.21-1.04-1.86-.49-1.08-1.24-1.72-2.45-1.8-.39-.03-.78-.14-1.16-.25-.82-.23-1.26-.79-1.35-1.63-.09-.89.22-1.6,1.05-1.95,1.17-.49,2.36-.93,3.56-1.36.19-.07.47.03.68.12,1.61.68,3.23.52,4.79-.08,1.65-.64,2.68.43,3.68,1.29.95.81,1.61,1.96,2.45,2.9.85.94,1.7,1.88,3.19,1.79.84-.05,1.32.86,1.16,1.71-.07.42.02.97.26,1.31,1.03,1.5,2.02,3.05,3.25,4.37,1.46,1.57,3.16,2.92,4.76,4.36.24.21.51.39.74.61,1.33,1.31,2.67,2.6,3.97,3.94.85.88,1.58,1.87,2.44,2.73.78.79,1.71,1.42,2.49,2.21.94.95,1.76,2.01,2.68,2.97.34.35.82.57,1.22.86.67.48,1.45.88,1.99,1.48,1.06,1.19,2.47,1.11,3.81,1.24.66.06,1.24-1.05.87-1.78-.44-.87-.29-1.6.14-2.38.56-1.02,0-1.97-.38-2.84-.42-.97-.46-1.85.03-2.75.38-.69.45-1.32-.06-2.01-.15-.2-.06-.62-.01-.92.13-.84.3-1.68.44-2.52.02-.11-.08-.25-.05-.35.62-1.92-.92-3.17-1.41-4.74-.17-.55-.06-1.23.08-1.82.28-1.2,1.1-2.35.12-3.61-.12-.15-.11-.47-.04-.68.38-1.2.12-1.98-1.15-2.39-1.04-.33-1.35-1.11-1.8-1.91-.25-.44-.7-.77-1.06-1.14-.05-.05-.17-.03-.22-.09-.53-.56-1.06-1.12-1.59-1.68.65-.31,1.26-.74,1.95-.92,2.08-.52,4.17-.55,6.25.08.26.08.61-.04.9-.12,2.01-.5,4.02-.64,5.94.24.55.25,1.01.91,1.26,1.49.14.32-.14.98-.44,1.28-.69.69-1.4,1.43-2.54,1.4-.22,0-.57.44-.65.74-.29,1.03-.52,2.08-.7,3.13-.21,1.25-.64,2.57-.45,3.78.33,2.09-.99,4.1-.03,6.22.27.6-.36,1.56-.47,2.38-.1.76-.05,1.53-.05,2.3,0,.19.12.39.11.58-.11,2.42-.28,4.83-.33,7.25-.03,1.1.25,2.21.23,3.31-.02,1.9-.23,3.8-.24,5.69,0,1.74.19,3.48.26,5.23.01.3-.11.61-.23.9-.2.48-.62.93-.63,1.4-.04,1.52-.05,3.06.13,4.56.16,1.29-.29,2.26-1.64,2.77-1.29.49-2.57.11-3.05-1.06-.4-.98-.96-1.71-1.88-2.21-1.36-.74-1.44-2.3-2.14-3.46-1.34-2.24-2.88-4.31-4.83-6.08-1.91-1.73-3.73-3.55-5.54-5.38-2.04-2.05-4.02-4.15-6.02-6.25-.47-.49-.8-1.11-1.3-1.57-1.3-1.21-2.65-2.37-3.98-3.55-.85-.75-1.53-1.72-2.74-1.97-.85-.17-1.7-.39-2.54-.6-.73-.18-1.47-.32-2.17-.57-1.1-.4-1.77.08-1.71,1.28.04.64,0,1.28,0,1.92.02,0,.03,0,.05,0Z"/>
  <path d="M100.63,46.54c-.89-1.18-.27-1.72.66-2.15.75-.35,1.51-.7,2.26-1.05,1.23-.57,2.22-.27,3.06.78.9,1.14,1.59,2.21.88,3.8-.74,1.66-1.05,3.51-1.84,5.13-.77,1.58-1.8,3.09-2.97,4.4-.47.52-1.63.48-2.48.56-.91.08-1.83-.03-2.75-.01-.34,0-.82.04-1,.25-.78.91-1.74.8-2.75.69-1.1-.11-2.22-.35-3.24.41-.2.15-.63.08-.93.02-1.97-.41-3.93-.85-5.9-1.29-.61-.14-1.21-.37-1.83-.45-.84-.12-1.7-.13-2.56-.2-.6-.05-1.27.04-1.79-.2-1.5-.69-2.92-1.55-4.53-.24-.24.19-.75.03-1.14.05-1.41.09-2.83.18-4.24.28-1.46.1-2.93.35-4.38.28-1.32-.07-2.01-1.72-1.49-2.95.79-1.9,2.31-3.06,3.95-4.14.03-.02.07-.05.11-.05,2.58.08,2.36-2.4,3.38-3.74.16-.22.11-.72-.02-1.02-.85-1.89-1.14-3.81-.73-5.87.11-.54-.24-1.17-.25-1.75-.04-2.93.24-5.91-.13-8.79-.24-1.88.14-3.77-.38-5.6-.23-.79.03-1.26.76-1.64,1.46-.75,1.56-1.2.54-2.44-.46-.56-.22-.96-.02-1.52.25-.71.63-1.68.35-2.21-.93-1.73-2.02-3.41-3.29-4.92-.93-1.11-2.23-1.9-3.36-2.85-1.65-1.4-1.44-3.87.47-4.99.84-.49,1.77-1.03,2.8-.45,1.16.66,2.27.42,3.43-.04.6-.24,1.3-.27,1.96-.29,3.23-.1,6.46-.15,9.69-.25.34-.01.71-.15,1.02-.32,2.85-1.53,4.05-.79,5.49.91.88,1.05,2.03,2.02,1.79,3.62-.07.44-.32.87-.54,1.28-.11.2-.42.32-.47.53-.52,1.93-2.14,2.47-3.75,3.13-2.56,1.05-3.83,3.67-3.58,6.42.13,1.44-.15,2.94-.45,4.37-.22,1.04-.34,1.93.46,2.78.66.7.79,1.55.34,2.44-.56,1.11-.31,2,.35,3.08,1.11,1.81,1.67,3.75.15,5.8-.45.6-.49,1.7-.35,2.5.32,1.85.65,3.6-.6,5.28-.21.28.11.98.22,1.48.11.5.45,1.02.38,1.49-.2,1.41.48,2.33,1.96,2.3,1.43-.02,2.87-.29,4.29-.17,1.87.15,3.55-.21,5.33-.77,1.37-.43,2.98-.17,4.37-.88.25-.13.56-.18.74-.37.69-.73,1.46-.89,2.54-.45Z"/>
  <path d="M179.22,46.31c-.78-1.05-.01-1.58.93-2.03.64-.31,1.3-.59,1.94-.89,1.3-.6,2.36-.38,3.28.78.98,1.24,1.51,2.41.72,4.04-.72,1.48-1.07,3.14-1.66,4.7-.31.81-.74,1.57-1.19,2.31-.35.58-.82,1.07-1.19,1.64-.6.91-1.52,1.13-2.5,1.16-.88.03-1.75-.04-2.63-.06-.89-.03-1.71.05-2.42.76-.27.27-.88.27-1.34.27-1.37,0-2.77-.54-4.07.39-.18.13-.55.06-.82,0-2.17-.43-4.33-.88-6.49-1.34-.42-.09-.83-.28-1.24-.41-.37-.12-.81-.41-1.12-.31-2.03.62-3.76-.37-5.57-.94-.35-.11-.88-.16-1.12.02-.95.71-1.92.64-3.04.56-1.23-.09-2.5.34-3.75.45-1.42.12-2.86.28-4.27.14-1.22-.12-1.73-1.8-1.25-3,.76-1.89,2.32-2.95,3.88-4.04.03-.02.07-.06.1-.06,2.58.1,2.39-2.37,3.39-3.72.16-.22.12-.72,0-1.02-.79-1.9-1.15-3.8-.74-5.88.15-.73-.24-1.56-.29-2.35-.12-2.19-.2-4.38-.26-6.58-.01-.43.16-.86.19-1.29.04-.51.18-1.11-.02-1.52-.47-.98-.58-1.85-.07-2.86.15-.31-.02-.85-.17-1.23-.34-.87-.3-1.49.64-1.98,1.46-.76,1.47-1.13.55-2.47-.21-.31-.29-.98-.1-1.25,1.09-1.51.43-2.74-.37-4.08-1.48-2.47-3.51-4.36-5.79-6.08-1.71-1.29-1.59-3.71.21-4.94.99-.68,2.08-1.01,3.37-.48.69.28,1.7.33,2.35.02,1.65-.77,3.31-.29,4.96-.38,2.35-.13,4.7-.15,7.06-.26.46-.02.97-.15,1.36-.38,2.38-1.44,4.09-.77,5.34.8.88,1.1,2.11,2.04,1.95,3.68-.04.41-.22.84-.42,1.21-.39.69-.77,1.4-1.29,1.98-.46.51-1.04,1.05-1.67,1.23-2.39.66-3.94,2.19-4.89,4.39-.21.49-.36,1.1-.27,1.6.36,2.01.11,3.95-.36,5.91-.15.61.02,1.47.38,1.98.7.99.94,1.91.39,3.01-.48.97-.21,1.73.36,2.64,1.15,1.85,1.79,3.8.27,5.89-.43.6-.57,1.63-.43,2.38.36,1.92.72,3.76-.58,5.52-.2.27.16.98.29,1.47.12.46.43.95.36,1.38-.24,1.43.41,2.37,1.88,2.36,1.47,0,2.95-.29,4.41-.17,1.83.15,3.5-.08,5.21-.79,1.09-.45,2.42-.28,3.6-.56.71-.17,1.31-.73,2.01-.98.62-.22,1.3-.25,2-.37Z"/>
  <path d="M3.3,52.97c.43-.16.92-.24,1.27-.51.69-.54,1.36-1.12,1.9-1.8.27-.34.42-.97.32-1.4-.31-1.29-.28-2.45.36-3.68.6-1.16.86-2.45.23-3.8-.31-.66-.37-1.46-.41-2.2-.07-1.22.1-2.48-.1-3.67-.29-1.8.23-3.46.54-5.17.38-2.1.05-4.21.02-6.32-.03-1.88,0-3.76-.01-5.64,0-.31-.11-.62-.14-.94-.08-.74-.42-1.6-.16-2.19.73-1.67.29-3.21-.18-4.76-.1-.32-.64-.58-1.03-.73-2.2-.83-4.11-1.98-4.76-4.42-.15-.57-.09-1.44.26-1.84.51-.59,1.29-1.07,2.24-.52.35.2.84.17,1.27.2,1.42.13,2.87.5,4.24.29,1.86-.29,3.78.83,5.57-.33.16-.11.65.05.82.23.72.79,1.46.55,2.39.37,1.53-.28,3.08-.83,4.69-.21.55.22.74.45.63,1.06-.23,1.21-.67,2.11-1.66,3.06-1.27,1.22-2.68,2.18-4.04,3.24-.64.5-.66.91-.2,1.6.43.64.65,1.43.85,2.19.22.8.32,1.63.44,2.45.04.3.01.63-.02.94-.14,1.27-.27,2.55-.46,3.81-.14.89-.43,1.75-.56,2.64-.06.43.07.9.14,1.34.1.63.39,1.27.3,1.87-.27,1.88-.74,3.73-1,5.61-.06.45.36.97.54,1.46.13.34.44.79.33,1.02-.97,2.08-.47,4.15-.22,6.26.12.98-.33,2.02-.4,3.04-.04.67.09,1.36.25,2.02.23.97.61,1.91.83,2.88.32,1.36,1.35,1.99,2.43,2.61.69.39,1.46.71,2.02,1.24.57.55,1.51,1.06.98,2.18-.59,1.25-1.63,1.86-2.85,1.61-2.13-.45-4.22-.52-6.34.19-.77.26-1.66.17-2.48.33-.66.13-1.29.42-1.95.57-.37.08-1.02.15-1.11-.01-.59-1.06-1.64-.93-2.45-.79-2.05.36-3.85-.22-5.61-1.09-1.28-.63-1.37-2.55-.19-3.37.71-.49,1.49-.9,2.24-1.34.07.14.15.29.22.43Z"/>
  <path d="M412.38,53.01c.5-.25,1.05-.45,1.49-.78.54-.4,1.1-.84,1.47-1.38.31-.47.56-1.15.47-1.68-.2-1.21-.25-2.3.35-3.46.62-1.2.87-2.48.32-3.9-.38-1-.33-2.16-.44-3.26-.11-1.13-.28-2.28-.24-3.41.05-1.23.43-2.46.46-3.69.03-1.7,1.04-3.33.29-5.09-.19-.43-.03-1.02-.03-1.53,0-2.04,0-4.07,0-6.11,0-.27-.09-.55-.13-.82-.09-.74-.4-1.55-.2-2.2.47-1.52.45-2.93-.05-4.43-.22-.65-.41-.95-1.11-1.15-2.31-.68-4.2-1.94-4.85-4.44-.14-.55-.08-1.38.25-1.76.52-.58,1.24-.97,2.24-.58.77.3,1.72.16,2.58.24.94.09,1.91.42,2.81.27,1.88-.31,3.83.8,5.67-.3.2-.12.66.22,1.01.33.5.17,1.03.49,1.51.44,1.09-.11,2.16-.51,3.26-.59.8-.06,1.63.18,2.44.31.13.02.27.18.33.31.24.48-.49,2.71-.91,3.07-.61.54-1.16,1.15-1.76,1.71-.31.29-.66.56-1.01.8-.65.45-1.33.88-1.99,1.32-.66.45-.67.92-.23,1.62.41.65.65,1.43.85,2.18.21.8.29,1.63.42,2.45.04.23.09.47.07.7-.15,1.42-.28,2.85-.5,4.26-.13.81-.42,1.6-.6,2.4-.07.34-.21.85-.04,1.02,1.2,1.22.33,2.46.13,3.7-.24,1.48-.45,2.97-.66,4.45-.02.12-.03.3.03.35,1.69,1.27.14,2.8.33,4.19.17,1.24.31,2.5.3,3.74,0,1.01-.14,2.05-.4,3.02-.24.89-.1,1.55.34,2.36.45.82.57,1.83.79,2.77.31,1.3,1.32,1.92,2.37,2.52.72.41,1.52.76,2.12,1.31.56.52,1.42,1.03.93,2.09-.53,1.15-1.46,1.77-2.6,1.67-1.38-.11-2.76-.26-4.15-.3-.61-.02-1.23.18-1.85.28-.98.16-1.96.41-2.94.46-.8.04-1.57-.06-2.2.64-.16.17-.92.14-1.01-.02-.61-1.12-1.69-.95-2.54-.81-2.1.36-3.94-.24-5.7-1.21-1.11-.61-1.16-2.42-.13-3.17.73-.53,1.55-.95,2.33-1.42.09.16.18.31.27.47Z"/>
  <path d="M212.75,3.33c1.16-.88,2.43-1.28,3.91-1.29,4.19-.04,8.35-.02,12.55-.88,3.79-.78,7.25.65,9.06,4.34-.75,4.94-6.02,2.3-8.11,5.57-.06,3.99-1.58,8.21-.63,12.83.39,1.91-.64,4.39-.73,6.69-.39,10.04,4.49,17.04,13,21.4,5.19,2.66,10.78,2.78,15.52-1.69.38-.36.88-.69,1.07-1.15,2.65-6.3,6.97-12.02,6.12-19.5-.26-2.31-.61-4.49-1.54-6.54,1.72-2.99,1.71-3.36-.22-13.53-2.23-1.87-6.79.85-7.8-4.01,2.11-3.85,6.39-4.79,9.83-4.2,4.93.84,9.82.18,14.67.92v4.24c-2.27,2.83-2.51,6.23-2.64,9.63-.21,5.62-.13,11.25-.06,16.87.13,10.18-4.95,17.67-12.23,24.06-1.66,1.46-3.75,1.49-5.78,1.82-2.98.49-6.12.16-8.93,1.61h-1.06c-3.07-1.09-6.25-.36-9.38-.52-11.66-.59-21.88-11.57-22.77-24.58-.2-2.99-.18-5.99-.03-8.99.35-7.29-.11-14.43-3.82-20.97v-2.12Z"/>
</svg>